/* XPM */
static const char * appiconsmall_xpm[] = {
"64 64 180 2",
"  	c None",
". 	c #4A4953",
"+ 	c #4E4D56",
"@ 	c #4F4E57",
"# 	c #4E4C55",
"$ 	c #464551",
"% 	c #363945",
"& 	c #353744",
"* 	c #353743",
"= 	c #504E57",
"- 	c #55525B",
"; 	c #4F4D57",
"> 	c #373845",
", 	c #353844",
"' 	c #4B4A55",
") 	c #56535B",
"! 	c #A3843B",
"~ 	c #D1A329",
"{ 	c #A2853C",
"] 	c #6F6450",
"^ 	c #C79C2D",
"/ 	c #C69C2D",
"( 	c #6F6351",
"_ 	c #474651",
": 	c #53505A",
"< 	c #8B7546",
"[ 	c #FBBE18",
"} 	c #897446",
"| 	c #DDAB24",
"1 	c #DCA924",
"2 	c #525059",
"3 	c #9D813D",
"4 	c #9C813E",
"5 	c #F0B61C",
"6 	c #EFB71C",
"7 	c #635B56",
"8 	c #E3AE22",
"9 	c #625B56",
"0 	c #9F823D",
"a 	c #FABE19",
"b 	c #9E813E",
"c 	c #59545A",
"d 	c #585459",
"e 	c #665D54",
"f 	c #D3D6DA",
"g 	c #ADAEB2",
"h 	c #DBDEE3",
"i 	c #B3B4B6",
"j 	c #D8DDE1",
"k 	c #78A0D0",
"l 	c #719FD2",
"m 	c #7699CA",
"n 	c #91A0C6",
"o 	c #8E9DC5",
"p 	c #778ABB",
"q 	c #A1AECC",
"r 	c #BFCCDC",
"s 	c #6FA4D8",
"t 	c #6FA3D7",
"u 	c #6A98CE",
"v 	c #6A97CD",
"w 	c #6A99CF",
"x 	c #6FA3D8",
"y 	c #6FA0D4",
"z 	c #8295C1",
"A 	c #6B82B7",
"B 	c #D1D5D8",
"C 	c #C0CCDC",
"D 	c #658AC3",
"E 	c #5C76B2",
"F 	c #6996CD",
"G 	c #6E9FD4",
"H 	c #8B9EC4",
"I 	c #667EB3",
"J 	c #CFD1D5",
"K 	c #6388C0",
"L 	c #6892CA",
"M 	c #CCCED3",
"N 	c #658CC4",
"O 	c #6EA3D8",
"P 	c #6B9BD1",
"Q 	c #6C9ED3",
"R 	c #8A9CC4",
"S 	c #CDD4E0",
"T 	c #6F9CD0",
"U 	c #BAC2D5",
"V 	c #B0BBD2",
"W 	c #687FB6",
"X 	c #7084B3",
"Y 	c #C4CEDD",
"Z 	c #B0C3D9",
"` 	c #A0B2C7",
" .	c #97A7BD",
"..	c #9FA7B8",
"+.	c #A1A8B6",
"@.	c #AFB1B6",
"#.	c #CCCFD2",
"$.	c #BFC0C3",
"%.	c #BDBFC2",
"&.	c #C1C2C6",
"*.	c #D7DADF",
"=.	c #878289",
"-.	c #C4974E",
";.	c #B58A5D",
">.	c #A57F6C",
",.	c #AA8D7B",
"'.	c #A69689",
").	c #E0CDBC",
"!.	c #DCDDDF",
"~.	c #EBAC28",
"{.	c #FBBB19",
"].	c #FAB01A",
"^.	c #F9A31C",
"/.	c #F7971E",
"(.	c #F58E28",
"_.	c #DA8E4B",
":.	c #AE8369",
"<.	c #C6A88D",
"[.	c #CFCAC9",
"}.	c #DBA338",
"|.	c #FAB419",
"1.	c #F9A71B",
"2.	c #F89B1D",
"3.	c #F68B22",
"4.	c #F19845",
"5.	c #EBAC72",
"6.	c #E5C09E",
"7.	c #DDD8D5",
"8.	c #B29260",
"9.	c #FAB51A",
"0.	c #F68820",
"a.	c #F29743",
"b.	c #869DAF",
"c.	c #F9A71C",
"d.	c #EAAD74",
"e.	c #F8B81D",
"f.	c #FAA91B",
"g.	c #EBA96B",
"h.	c #DBDDE1",
"i.	c #E6AE33",
"j.	c #F7951E",
"k.	c #F68922",
"l.	c #E2C8B1",
"m.	c #C7A85F",
"n.	c #FBBC18",
"o.	c #F7961E",
"p.	c #F58C28",
"q.	c #E2C8B0",
"r.	c #9AA59D",
"s.	c #71A4D6",
"t.	c #FABB19",
"u.	c #D9DCE2",
"v.	c #F2B127",
"w.	c #FAAA1B",
"x.	c #D9DCE1",
"y.	c #D3D6DB",
"z.	c #E5B252",
"A.	c #F68A20",
"B.	c #F7931F",
"C.	c #F48C29",
"D.	c #D8C4B3",
"E.	c #B3B5B6",
"F.	c #DADDE2",
"G.	c #DBDEE1",
"H.	c #E3CEA7",
"I.	c #E1CCB5",
"J.	c #F8B626",
"K.	c #F89E1C",
"L.	c #D2A781",
"M.	c #D7D9DE",
"N.	c #DDD8D3",
"O.	c #F8B627",
"P.	c #E09E5F",
"Q.	c #B4B4B5",
"R.	c #F9B41E",
"S.	c #EE8D31",
"T.	c #F9AF19",
"U.	c #F9A81C",
"V.	c #F68821",
"W.	c #F68920",
"                                                                                                                                ",
"                                                                                                                                ",
"                                                                                                                                ",
"                                                                                                                                ",
"                                                                                                                                ",
"        . + @ @ @ @ @ @ @ @ @ @ @ @ @ @ @ @ @ @ @ @ @ @ @ @ @ @ @ @ @ @ @ @ @ @ @ @ @ @ @ @ @ @ @ @ @ @ @ @ # $ % & *           ",
"      = - - - - - - - - - - - - - - - - - - - - - - - - - - - - - - - - - - - - - - - - - - - - - - - - - - - - ; > & & ,       ",
"    ' - - - - - - - - - - - - - - - - - - - - - - - - - - - - - - - - - - - - - ) ! ~ { ) - ] ^ / ( - ) ! ~ { ) - _ & & & *     ",
"    : - - - - - - - - - - - - - - - - - - - - - - - - - - - - - - - - - - - - - < [ [ [ } - | [ [ 1 - < [ [ [ } - 2 & & & &     ",
"    - - - - - - - - - - - - - - - - - - - - - - - - - - - - - - - - - - - - - - 3 [ [ [ 4 - 5 [ [ 6 - 3 [ [ [ 4 - - & & & &     ",
"    - - - - - - - - - - - - - - - - - - - - - - - - - - - - - - - - - - - - - - 7 8 [ 8 9 - 0 a a b - 7 8 [ 8 9 - - & & & &     ",
"    - - - - - - - - - - - - - - - - - - - - - - - - - - - - - - - - - - - - - - - c ] d - - - e e - - - c ] d - - - & & & &     ",
"    - - - - - - - - - - - - - - - - - - - - - - - - - - - - - - - - - - - - - - - - - - - - - - - - - - - - - - - - & & & &     ",
"    f f f f f f f f f f f f f f f f f f f f f f f f f f f f f f f f f f f f f f f f f f f f f f f f f f f f f f f f g g g g     ",
"    h h h h h h h h h h h h h h h h h h h h h h h h h h h h h h h h h h h h h h h h h h h h h h h h h h h h h h h h i i i i     ",
"    h h h h h h h h h h h h h h h h h h h h h h h h h h h h h h h h h h h h h h h h h h h h h h h h h h h h h h h h i i i i     ",
"    h h h h h h h h h h h h h h h h h h h h h h h h h h h h h h h h h h h h h h h h h h h h h h h h h h h h h h h h i i i i     ",
"    h h h h h h h h j k l l l l l l l l m n o p q h h h h h h h h j k l l l l l l l l m n o p q h h h h h h h h h h i i i i     ",
"    h h h h h h h h r s t u v v v v w x y h h z A B h h h h h h h r s t u v v v v w x y h h z A B h h h h h h h h h i i i i     ",
"    h h h h h h h h C s D E E E E E E F G h h H I i J h h h h h h C s D E E E E E E F G h h H I i J h h h h h h h h i i i i     ",
"    h h h h h h h h C s K E E E E E E L G h h H I i M h h h h h h C s K E E E E E E L G h h H I i M h h h h h h h h i i i i     ",
"    h h h h h h h h C s K E E E E E E L G h h H I i M h h h h h h C s K E E E E E E L G h h H I i M h h h h h h h h i i i i     ",
"    h h h h h h h h C s K E E E E E E L G h h H I i M h h h h h h C s K E E E E E E L G h h H I i M h h h h h h h h i i i i     ",
"    h h h h h h h h C s K E E E E E E L G h h H I i M h h h h h h C s K E E E E E E L G h h H I i M h h h h h h h h i i i i     ",
"    h h h h h h h h C s K E E E E E E L G h h H I i M h h h h h h C s K E E E E E E L G h h H I i M h h h h h h h h i i i i     ",
"    h h h h h h h h C s K E E E E E E L G h h H I i M h h h h h h C s K E E E E E E L G h h H I i M h h h h h h h h i i i i     ",
"    h h h h h h h h C s N E E E E E E v G h h H I i M h h h h h h C s N E E E E E E v G h h H I i M h h h h h h h h i i i i     ",
"    h h h h h h h h C s O P P P P P Q s G h h H I i M h h h h h h C s O P P P P P Q s G h h H I i M h h h h h h h h i i i i     ",
"    h h h h h h h h C s s s s s s s s s G h h H I i M h h h h h h C s s s s s s s s s G h h H I i M h h h h h h h h i i i i     ",
"    h h h h h h h h C s s s s s s s s s G h h H I i M h h h h h h C s s s s s s s s s G h h H I i M h h h h h h h h i i i i     ",
"    h h h h h h h h C s s s s s s s s s G h h H I i M h h h h h h C s s s s s s s s s G h h H I i M h h h h h h h h i i i i     ",
"    h h h h h h h h C s s s s s s s s s G h h R I i M h h h h h h C s s s s s s s s s G h h R I i M h h h h h h h h i i i i     ",
"    h h h h h h h h S t s s s s s s s s T U V W X i M h h h h h h S t s s s s s s s s T U V W X i M h h h h h h h h i i i i     ",
"    h h h h h h h h h Y Z Z `  . . . . ...+.+.+.@.i #.h h h h h h h Y Z Z `  . . . . ...+.+.+.@.i #.h h h h h h h h i i i i     ",
"    h h h h h h h h h h h h B $.%.%.%.%.%.%.%.%.%.&.*.h h h h h h h h h h B $.%.%.%.%.%.%.%.%.%.&.*.h h h h h h h h i i i i     ",
"    h h h h h h h h h h h h h h h h h h h h h h h h h h h h h h h h h h h h h h h h h h h h h h h h h h h h h h h h i i i i     ",
"    h h h h h h h h h h h h h h h h h h h h h h h h h h h h h h h h h h h h h h h h h h h h h h h h h h h h h h h h i i i i     ",
"    h h h h h h h h j k l l l l l l l l m n o p q h h h h h h h h j k l l l l l l l l m n o p q h h h h h h h h h h i i i i     ",
"    h h h h h h h h r s t u v v v v w x y h h z A B h h h h h h h r s t u v v v v w x y h h z A B h h h h h h h h h i i i i     ",
"    h h h h h h h h C s D E E E E E E F G h h H I i J h h h h h h C s D E E E E E E F G h h H I i J h h h h h h h h i i i i     ",
"    h h h h h h h h C s K E E E E E E L G h h H I i M h h h h h h C s K E E E E E E L G h h H I i M h h h h h h h h i i i i     ",
"    h h h h h h h h C s K E E E E E E L G h h H I i M h h h h h h C s K E E E E E E L G h h H I i M h h h h h h h h i i i i     ",
"    h h h h h h h h C s K E E E E E E L G h h H I i M h h h h h h C s K E E E E E E L G h h H I i M h h h h h h h h i i i i     ",
"    h h h h h h h h C s K E E E E E E L G h h H I i M h h h h h h C s K E E =.-.;.>.,.'.).!.H I i M h h h h h h h h i i i i     ",
"    h h h h h h h h C s K E E E E E E L G h h H I i M h h h h h h C s K E E ~.[ [ {.].^./.(._.:.<.[.h h h h h h h h i i i i     ",
"    h h h h h h h h C s K E E E E E E L G h h H I i M h h h h h h C s K E E }.[ [ [ [ [ [ [ |.1.2.3.4.5.6.7.h h h h i i i i     ",
"    h h h h h h h h C s N E E E E E E v G h h H I i M h h h h h h C s N E E 8.[ [ [ [ [ [ [ [ [ [ 9.0.0.0.a.h h h h i i i i     ",
"    h h h h h h h h C s O P P P P P Q s G h h H I i M h h h h h h C s O P P b.[ [ [ [ [ [ [ [ [ [ c.0.0.0.d.h h h h i i i i     ",
"    h h h h h h h h C s s s s s s s s s G h h H I i M h h h h h h C s s s s s e.[ [ [ [ [ [ [ [ f.0.0.0.g.h.h h h h i i i i     ",
"    h h h h h h h h C s s s s s s s s s G h h H I i M h h h h h h C s s s s s i.[ [ [ [ [ [ [ [ j.0.0.k.l.h h h h h i i i i     ",
"    h h h h h h h h C s s s s s s s s s G h h H I i M h h h h h h C s s s s s m.[ [ [ [ [ [ [ [ n.o.0.0.p.q.h h h h i i i i     ",
"    h h h h h h h h C s s s s s s s s s G h h R I i M h h h h h h C s s s s s r.[ [ [ [ [ [ [ [ [ n.o.0.0.p.q.h h h i i i i     ",
"    h h h h h h h h S t s s s s s s s s T U V W X i M h h h h h h S t s s s s s.t.[ [ [ [ [ [ [ [ [ n.o.0.0.p.q.h h i i i i     ",
"    u.h h h h h h h h Y Z Z `  . . . . ...+.+.+.@.i #.h h h h h h h Y Z Z `  . .v.[ [ w.].[ [ [ [ [ [ n.o.0.0.p.q.x.i i i i     ",
"    y.h h h h h h h h h h h B $.%.%.%.%.%.%.%.%.%.&.*.h h h h h h h h h h B $.%.z.[ f.0.A.].[ [ [ [ [ [ n.B.0.0.C.D.i i i E.    ",
"      F.h h h h h h h h h h h h h h h h h h h h h h h h h h h h h h h h h h h h G.H.).).).I.J.[ [ [ [ [ [ K.0.0.0.L.i i i       ",
"        M.h h h h h h h h h h h h h h h h h h h h h h h h h h h h h h h h h h h h h h h h h N.O.[ [ [ [ f.0.0.0.P.Q.i i         ",
"                                                                                                R.[ [ f.0.0.0.S.                ",
"                                                                                                  T.U.V.V.V.W.                  ",
"                                                                                                                                ",
"                                                                                                                                ",
"                                                                                                                                ",
"                                                                                                                                ",
"                                                                                                                                "};
